<?xml version="1.0" encoding="utf-8"?>
<!-- Generator: Adobe Illustrator 19.0.0, SVG Export Plug-In . SVG Version: 6.00 Build 0)  -->
<svg version="1.1" id="Layer_1" xmlns="http://www.w3.org/2000/svg" xmlns:xlink="http://www.w3.org/1999/xlink" x="0px" y="0px"
	 viewBox="-194 358.7 221.8 77.3" style="enable-background:new -194 358.7 221.8 77.3;" xml:space="preserve">
<style type="text/css">
	.st0{fill:#7C7B7B;}
</style>
<g>
	<path class="st0" d="M-116.6,396.6c0,0,4.8-2.2,4.8-10.4s-2.3-14.9-7.9-14.9s-16,0-16,0v51.8h15.5c0,0,8.4,0,8.4-12.5
		S-116.6,396.6-116.6,396.6z M-120.7,402.9c0,0,0,4.6,0,8.6s-2.2,3.6-2.2,3.6h-2.8V400c0,0,0.6,0.1,3,0.1
		C-120.2,400.1-120.7,402.9-120.7,402.9z M-120.7,382.1c0,0,0,4.6,0,8.6s-2.1,3.6-2.1,3.6h-2.8v-15.1c0,0,0.6,0.1,3,0.1
		S-120.7,382.1-120.7,382.1z"/>
	<path class="st0" d="M-109.6,385.3v33.3c0,0,0.4,4.6,5.2,4.6s5.8-2.8,5.8-2.8h2v2.8h5.8v-38.1h-6.8v29.4c0,0,0.2,2.7-2.3,2.7
		s-1.8-2.8-1.8-2.8v-29.2L-109.6,385.3z"/>
	<path class="st0" d="M-36.9,422.9v-33.2c0,0-0.4-4.6-5.2-4.6s-5.8,2.8-5.8,2.8h-2v-2.7h-5.8v37.9h6.8v-29.4c0,0-0.2-2.7,2.3-2.7
		s1.8,2.8,1.8,2.8v29.3L-36.9,422.9z"/>
	<path class="st0" d="M-76.7,396h7c0,0,0.2-11.8-9.1-11.8s-9.8,9.5-9.8,10.3s0.7,6,4.6,9.9c3.9,3.9,6.6,6.8,6.8,8
		c0.3,1.2,1.7,4.7-2.3,4.7c0,0-2.3,0.1-2.3-3v-2.8H-88v5c0,0,0.7,6.9,8.3,6.9c7.6,0,10.1-4.3,10.1-8.7c0-4.4-3.2-9.6-6.1-12.3
		s-5.7-6.8-5.6-8.6s0.8-2.3,1.7-2.7s3-0.5,3,0.9C-76.7,393.3-76.7,396-76.7,396z"/>
	<path class="st0" d="M-1.7,396h7c0,0,0.2-11.8-9.1-11.8s-9.8,9.5-9.8,10.3s0.7,6,4.6,9.9c3.9,3.9,6.6,6.8,6.8,8
		c0.3,1.2,1.7,4.7-2.3,4.7c0,0-2.3,0.1-2.3-3v-2.8h-6.3v5c0,0,0.7,6.9,8.3,6.9s10.1-4.3,10.1-8.7c0-4.4-3.2-9.6-6.1-12.3
		s-5.7-6.8-5.6-8.6s0.8-2.3,1.7-2.7c0.9-0.3,3-0.5,3,0.9C-1.7,393.3-1.7,396-1.7,396z"/>
	<path class="st0" d="M18.6,396h7c0,0,0.2-11.8-9.1-11.8s-9.8,9.5-9.8,10.3s0.7,6,4.6,9.9c3.9,3.9,6.6,6.8,6.8,8
		c0.3,1.2,1.7,4.7-2.3,4.7c0,0-2.3,0.1-2.3-3v-2.8H7.2v5c0,0,0.7,6.9,8.3,6.9s10.1-4.3,10.1-8.7c0-4.4-3.2-9.6-6.1-12.3
		s-5.7-6.8-5.6-8.6c0.1-1.8,0.8-2.3,1.7-2.7s3-0.5,3,0.9C18.6,393.3,18.6,396,18.6,396z"/>
	<rect x="-66.8" y="385.3" class="st0" width="7.1" height="37.8"/>
	<path class="st0" d="M-15.7,404.9l0.1-11.6c0-9.4-9.8-9.2-9.8-9.2c-9.2,0-9.3,9.7-9.3,9.7V414c0,0,0,9.3,10.1,9.3s8.7-8.5,8.7-8.5
		v-5.3h-6.6v4.8c0,3.1-1.3,3.2-2.9,3.2c-1.7,0-1.7-2.9-1.7-2.9v-9.5h11.4C-15.7,405.1-15.7,404.9-15.7,404.9z M-24.9,391
		c2.8,0,2.3,2.7,2.3,2.7v7.6h-4.1c0,0,0-5.5,0-7.9C-26.7,390.9-24.9,391-24.9,391z"/>
	<g>
		<path class="st0" d="M-179.9,404.8c-0.9,0.8-1.2,2.7-1.2,2.7v4.1c0,0,0.1,1.9,1.6,1.9s1.6-1.4,1.6-1.4s0-7.8,0-7.8
			C-178,403.1-179,404-179.9,404.8z"/>
		<path class="st0" d="M-191.9,371.4v52h47.8v-52H-191.9z M-170,418.5h-3.7c0,0-2.4-0.7-2.4-3c0,0-1,3-5.4,3c-4.3,0-6.5-3.6-6.5-7.4
			c0-3.8,2.1-6.9,3.4-8.2c1.3-1.4,6.6-3.3,6.6-5.4c0-2.1,0-4,0-4s0.4-2-1.3-2s-1.7,1.4-1.7,1.4v3.5h-6v-5c0,0,0-5.8,7.9-5.8
			c7.8,0,7.2,8.3,7.2,8.3v18.8c0,0,0,1.9,1.9,1.8V418.5z M-160.5,418.5h-6.6v-43.8c-0.1,0.1,6.6,0,6.6,0V418.5z M-149.7,418.5h-6.6
			v-43.8c-0.2,0.1,6.6,0,6.6,0V418.5z"/>
	</g>
	<rect x="-67.2" y="371.4" class="st0" width="7.5" height="7.5"/>
	<g>
		<path class="st0" d="M-50.5,378.3l-0.7-1.8h-3.1l-0.9,1.8h-0.7l2.6-6.5h0.7l2.6,6.5H-50.5z M-52.9,372.7l-1.3,3.3h2.7L-52.9,372.7
			z"/>
		<path class="st0" d="M-46.5,378.3v-6.5h2.2c2.2,0,3.5,1.1,3.5,3.3c0,2.2-1.3,3.2-3.6,3.2H-46.5z M-44.5,377.7c2,0,3-0.8,3-2.6
			c0-1.9-1-2.7-2.9-2.7h-1.4v5.3H-44.5L-44.5,377.7z"/>
		<path class="st0" d="M-38,375.1c-0.3,0.2-1,0.6-1,1.5c0,0.9,0.7,1.3,1.8,1.3c0.4,0,0.8-0.1,1.1-0.2l0.4,0.5
			c-0.4,0.2-0.9,0.3-1.5,0.3c-1.5,0-2.4-0.7-2.4-1.9c0-1.1,0.8-1.6,1.3-1.9c-0.5-0.4-0.7-0.9-0.7-1.4c0-0.9,0.7-1.6,1.9-1.6
			c1.3,0,1.9,0.7,1.9,0.7l-0.3,0.4c0,0-0.6-0.5-1.6-0.5c-0.8,0-1.2,0.4-1.2,1c0,0.6,0.5,1.1,0.9,1.5l2.1,2.3
			c0.3-0.3,0.4-0.7,0.4-1.2h0.6c0,0.6-0.2,1.1-0.6,1.6l0.6,0.6l-0.4,0.4L-38,375.1z"/>
		<path class="st0" d="M-33,378.3v-6.5h2.6c1.5,0,2.1,0.7,2.1,1.6c0,1-0.6,1.4-1.2,1.5c1.1,0.2,1.5,0.7,1.5,1.6
			c0,1.1-0.8,1.7-2.3,1.7L-33,378.3L-33,378.3z M-32.4,372.4v2.4h2.1c0.7,0,1.3-0.4,1.3-1.3c0-0.7-0.5-1.1-1.4-1.1H-32.4z
			 M-32.4,375.3v2.4h2.1c1.1,0,1.7-0.4,1.7-1.2c0-0.9-0.7-1.3-1.7-1.3L-32.4,375.3L-32.4,375.3z"/>
		<path class="st0" d="M-18.4,377.6c0,0-1,0.8-2.7,0.8c-2.4,0-3.3-1.6-3.3-3.4c0-1.9,1.2-3.3,3.3-3.3c1.6,0,2.3,0.6,2.3,0.6
			l-0.3,0.5c0,0-0.7-0.5-2-0.5c-1.7,0-2.7,1-2.7,2.7c0,1.6,0.8,2.9,2.7,2.9c1.5,0,2.5-0.7,2.5-0.7L-18.4,377.6z"/>
		<path class="st0" d="M-14.4,378.4c-2.3,0-3.3-1.6-3.3-3.4c0-2,1.3-3.3,3.3-3.3c2.1,0,3.3,1.4,3.3,3.3
			C-11.1,376.9-12.1,378.4-14.4,378.4z M-14.4,372.3c-1.7,0-2.7,1-2.7,2.8c0,1.5,0.8,2.8,2.7,2.8s2.7-1.3,2.7-2.8
			C-11.8,373.3-12.8,372.3-14.4,372.3z"/>
		<path class="st0" d="M-4.1,378.3v-4.9l-2.2,4.9h-0.5l-2.2-4.9v4.9h-0.6v-6.5H-9l2.5,5.5l2.5-5.5h0.6v6.5H-4.1z"/>
		<path class="st0" d="M-1.6,378.3v-6.5h2.7c1.6,0,2.5,0.7,2.5,2.3c0,1.5-1,2.2-2.5,2.2h-2v2H-1.6z M1,375.7c1.2,0,1.8-0.5,1.8-1.6
			c0-1.2-0.6-1.7-1.8-1.7h-2v3.4L1,375.7L1,375.7z"/>
		<path class="st0" d="M9.1,378.3l-0.7-1.8H5.3l-0.9,1.8H3.7l2.6-6.5H7l2.6,6.5H9.1z M6.8,372.7L5.5,376h2.7L6.8,372.7z"/>
		<path class="st0" d="M15.6,378.3l-4-5.3v5.3H11v-6.5h0.6l4,5.3v-5.3h0.6v6.5H15.6z"/>
		<path class="st0" d="M20.1,378.3v-2.5l-2.8-4h0.8l2.3,3.4l2.4-3.4h0.8l-2.8,4v2.5H20.1z"/>
	</g>
</g>
</svg>
