<?xml version="1.0" encoding="utf-8"?>
<!-- Generator: Adobe Illustrator 19.0.0, SVG Export Plug-In . SVG Version: 6.00 Build 0)  -->
<svg version="1.1" id="Layer_1" xmlns="http://www.w3.org/2000/svg" xmlns:xlink="http://www.w3.org/1999/xlink" x="0px" y="0px"
	 viewBox="-169 362 272.3 70" style="enable-background:new -169 362 272.3 70;" xml:space="preserve">
<style type="text/css">
	.st0{fill:#7C7B7B;}
</style>
<g>
	<path class="st0" d="M-51.4,391.9l0.2-9.4l0,0v-1.2l-20.5,4v1.2v0.6v1.2l2,0.3c2.9,0.4,4,2.1,4.3,5.9c0.3,3.4,0.4,8.1,0.4,12.8
		c0,4.9-0.2,9.6-0.4,12.7c-0.3,3.8-1.4,5.5-4.3,5.9l-2,0.3v1.2v1.4v1.2h28.6v-1.2v-1.4v-1.2l-3.7-0.3c-2.9-0.4-4-2.1-4.3-5.9
		c-0.3-3.1-0.4-8-0.4-12.9c0-3.8,0.1-7.6,0.3-10.7c1.4-2.3,8.1-4.1,14.3,0.1l5-12.6c-0.1-0.1-0.3-0.1-0.4-0.2l0.4-1
		C-37.2,379.5-46.6,380.9-51.4,391.9z"/>
	<path class="st0" d="M-95.2,381.3c-15.4,0-24,11-24,24.4c0,0.2,0,0.4,0,0.7c0,0.2,0,0.4,0,0.6c0,13.8,7.6,24.2,23,24.2
		s24-11,24-24.4c0-0.2,0-0.4,0-0.7c0-0.2,0-0.4,0-0.6C-72.1,391.7-79.8,381.3-95.2,381.3z M-95.4,426.9c-6.2,0-9.2-9.3-9.3-20.9
		c0.1-11.8,2-20.6,8.7-20.6c6.2,0,9.2,9.3,9.3,20.9C-86.7,418.1-88.7,426.9-95.4,426.9z"/>
	<path class="st0" d="M-3.7,381.8c-4.2,0-7.6,1.1-11.2,2.9c0-9.5,0.2-17.7,0.4-20.8h-0.1c0-0.5,0-0.9,0.1-1.2l-20.6,4v1.2v0.6v1.2
		l2,0.3c2.9,0.4,4,2.1,4.3,5.9c0.3,3.4,0.4,13.8,0.4,24.6c0,11.9-0.2,24-0.4,27.2h0.1c0,0.5-0.1,0.9-0.1,1.2
		c5.5,1.2,11.5,2.2,17.5,2.2C5,431.1,14.9,421,14.9,405c0-0.1,0-0.3,0-0.4c0-0.3,0-0.5,0-0.8C14.9,391,7,381.8-3.7,381.8z
		 M-14.9,388.9c1.9-0.6,3.2-0.8,4.8-0.8c6.6,0,10.4,7.5,10.6,17.1c-0.2,12.2-4.8,21.4-11.4,21.4c-1.2,0-2.7-0.2-3.5-0.3
		c-0.3-4.2-0.5-20.7-0.5-36C-14.9,389.8-14.9,389.4-14.9,388.9z"/>
	<path class="st0" d="M42.6,381.3c-15.9,0-23.9,12-23.9,24.7c0,0.2,0,0.4,0,0.5c0,0.2,0,0.5,0,0.7c0,14.1,9.8,23.9,23.7,23.9
		c8.8,0,15.5-4.2,18.7-8.6l-0.5-0.6c0.2-0.2,0.3-0.4,0.5-0.6l-1.4-1.6c-2.9,2.2-5.5,3.4-10.4,3.4c-10.6,0-16.3-7.7-16.4-18.5h28.8
		c0-0.4,0-0.8,0-1.2l0,0C61.7,390.9,55.5,381.3,42.6,381.3z M33.1,400.1c0.4-6.9,3.3-14.6,8.2-14.6s6.1,8,6.1,14.3L33.1,400.1z"/>
	<path class="st0" d="M101,414.2c0-6.5-3.2-10.1-11.2-13.2c-8.3-3.2-11.4-5.3-11.7-9c0.3-3.7,2.9-6.2,6.4-6.2
		c5.6,0,9.4,3.5,11.9,11.6l2.4-0.6l-0.1-1.2h0.1l-0.5-11.8c-3.4-1.6-8.5-2.5-13.9-2.5c-11.6,0-18.6,6.8-18.6,14.7c0,0.2,0,0.5,0,0.7
		s0,0.3,0,0.5c0,8.2,5.3,11.4,12.6,14c7.4,2.6,9.6,4.7,9.9,8c-0.3,3.5-3,6.7-7.6,6.7c-5.8,0-10.2-3.4-13.6-12.8l-2.4,0.6v1.2l0,0
		l0.4,13.5c3.8,1.5,10.4,2.9,16.3,2.9c12.3,0,19.7-6,19.7-15.7c0-0.3,0-0.5,0-0.7C101,414.5,101,414.3,101,414.2z"/>
	<path class="st0" d="M-131.3,369.7c8.3,0,12.8,5.3,15.6,14.7l3.2-0.9v-1.2l0,0l-0.3-18.2h-54.1v1.2v1.4v1.2l2.9,0.4
		c4.1,0.6,5.7,3.2,6.2,9c0.4,5.2,0.6,12.3,0.6,19.4c0,7.7-0.2,15.2-0.6,20.1c-0.5,5.8-2.1,8.4-6.2,9l-2.9,0.4v1.2v1.4v1.2h34.8v-1.2
		v-1.4v-1.2l-3.6-0.4c-4.1-0.6-5.7-3.2-6.2-9c-0.3-3.8-0.5-10-0.6-17.3l7.2,0.2c4.8,0.2,6.8,3.7,7.9,9h2.7v-1.2v-20.7v-1.2h-2.7
		c-1.2,5.3-3.2,8.8-7.9,9l-7.2,0.2c0-0.9,0-1.8,0-2.7c0-8.9,0.2-17.1,0.6-22.3L-131.3,369.7L-131.3,369.7z"/>
</g>
</svg>
