<?xml version="1.0" encoding="utf-8"?>
<!-- Generator: Adobe Illustrator 19.0.0, SVG Export Plug-In . SVG Version: 6.00 Build 0)  -->
<svg version="1.1" id="Layer_1" xmlns="http://www.w3.org/2000/svg" xmlns:xlink="http://www.w3.org/1999/xlink" x="0px" y="0px"
	 viewBox="-169 380 273 33" style="enable-background:new -169 380 273 33;" xml:space="preserve">
<style type="text/css">
	.st0{fill:#7C7B7B;stroke:#7C7B7B;stroke-width:0.3;stroke-miterlimit:10;}
</style>
<g>
	<g>
		<path id="path3321" class="st0" d="M-160.6,400.4c0,2.2,0,2.6,1.2,2.7l0.7,0.1c0.1,0.1,0.1,0.5,0,0.5c-1.2,0-1.9-0.1-2.7-0.1
			c-0.8,0-1.5,0-2.9,0.1c-0.1-0.1-0.2-0.4,0-0.5l0.7-0.1c1.2-0.1,1.3-0.4,1.3-2.7v-9.5c0-0.7,0-0.7-0.6-0.7h-1.2c-0.9,0-2,0-2.5,0.5
			s-0.7,0.9-0.9,1.5c-0.2,0.1-0.5,0-0.5-0.1c0.3-1,0.6-2.3,0.8-3.2c0.1,0,0.3-0.1,0.4,0c0.1,0.7,0.8,0.7,1.7,0.7h8.3
			c1.1,0,1.3,0,1.6-0.6c0.1,0,0.3,0,0.4,0.1c-0.2,0.9-0.4,2.6-0.3,3.2c-0.1,0.2-0.4,0.2-0.5,0c-0.1-0.5-0.2-1.3-0.5-1.6
			c-0.5-0.4-1.3-0.5-2.4-0.5h-1.5c-0.6,0-0.6,0-0.6,0.7V400.4L-160.6,400.4z"/>
		<path id="path3325" class="st0" d="M-147.5,396.7c-1,0-1,0-1,0.7v3c0,2.2,0.1,2.5,1.3,2.7l0.6,0.1c0.1,0.1,0.1,0.5,0,0.5
			c-1.1,0-1.8-0.1-2.6-0.1c-0.9,0-1.6,0-2.4,0.1c-0.1-0.1-0.2-0.4,0-0.5l0.4-0.1c1.2-0.2,1.2-0.4,1.2-2.7v-7.7
			c0-2.2-0.1-2.6-1.2-2.7h-0.5c-0.1-0.1-0.1-0.5,0-0.5c1,0,1.7,0.1,2.6,0.1c0.8,0,1.5,0,2.4-0.1c0.1,0.1,0.2,0.4,0,0.5h-0.4
			c-1.2,0.1-1.2,0.4-1.2,2.7v2.5c0,0.7,0,0.7,1,0.7h5.9c1,0,1,0,1-0.7v-2.5c0-2.2,0-2.6-1.3-2.7h-0.4c-0.1-0.1-0.1-0.5,0-0.5
			c0.9,0,1.6,0.1,2.5,0.1c0.8,0,1.5,0,2.4-0.1c0.1,0.1,0.2,0.4,0,0.5h-0.4c-1.2,0.1-1.2,0.4-1.2,2.7v7.7c0,2.2,0,2.5,1.2,2.7
			l0.5,0.1c0.1,0.1,0.1,0.5,0,0.5c-1,0-1.7-0.1-2.5-0.1c-0.8,0-1.6,0-2.5,0.1c-0.1-0.1-0.2-0.4,0-0.5l0.4-0.1
			c1.3-0.2,1.3-0.4,1.3-2.7v-3c0-0.6,0-0.7-1-0.7H-147.5L-147.5,396.7z"/>
		<path id="path3329" class="st0" d="M-132,392.7c0-2.2,0-2.5-1.3-2.7h-0.3c-0.1-0.1-0.1-0.5,0-0.5c0.9,0,1.6,0.1,2.4,0.1h3.9
			c1.3,0,2.5,0,2.8-0.1c0.1,0.4,0.2,1.9,0.3,2.8c-0.1,0.1-0.4,0.2-0.5,0c-0.3-1-0.5-1.8-1.6-2c-0.4-0.1-1.1-0.1-2-0.1h-1.5
			c-0.6,0-0.6,0-0.6,0.9v4.3c0,0.6,0.1,0.6,0.7,0.6h1.2c0.9,0,1.5,0,1.8-0.1c0.2-0.1,0.4-0.2,0.5-0.7l0.2-0.9c0.1-0.1,0.5-0.1,0.5,0
			c0,0.5-0.1,1.3-0.1,2.2c0,0.8,0.1,1.6,0.1,2c-0.1,0.1-0.4,0.1-0.5,0l-0.2-0.8c-0.1-0.4-0.2-0.7-0.6-0.8c-0.3-0.1-0.8-0.1-1.6-0.1
			h-1.2c-0.6,0-0.7,0-0.7,0.6v3c0,1.1,0.1,1.9,0.4,2.2c0.2,0.3,0.7,0.5,2.5,0.5c1.6,0,2.2-0.1,2.6-0.3c0.4-0.2,0.9-1,1.5-2.1
			c0.1-0.1,0.4,0,0.5,0.1c-0.1,0.7-0.7,2.4-0.9,3c-1.9,0-3.7-0.1-5.5-0.1h-1.9c-0.9,0-1.6,0-2.8,0.1c-0.1-0.1-0.2-0.4,0-0.5l0.7-0.1
			c1.2-0.1,1.3-0.4,1.3-2.7L-132,392.7L-132,392.7z"/>
	</g>
	<g>
		<path id="path3333" class="st0" d="M-106.7,396.7c-1,0-1.1,0-1.1,0.7v3c0,2.2,0.1,2.5,1.3,2.7l0.6,0.1c0.1,0.1,0.1,0.5,0,0.5
			c-1.2,0-1.9-0.1-2.7-0.1c-0.9,0-1.6,0-2.5,0.1c-0.1-0.1-0.2-0.4,0-0.5l0.4-0.1c1.2-0.2,1.2-0.4,1.2-2.7v-7.7
			c0-2.2-0.1-2.6-1.3-2.7h-0.6c-0.1-0.1-0.1-0.5,0-0.5c1,0,1.8,0.1,2.7,0.1c0.8,0,1.6,0,2.5-0.1c0.1,0.1,0.2,0.4,0,0.5h-0.4
			c-1.2,0.1-1.3,0.4-1.3,2.7v2.5c0,0.7,0,0.7,1.1,0.7h6.1c1,0,1.1,0,1.1-0.7v-2.5c0-2.2,0-2.6-1.3-2.7h-0.4c-0.1-0.1-0.1-0.5,0-0.5
			c1,0,1.7,0.1,2.6,0.1c0.8,0,1.6,0,2.5-0.1c0.1,0.1,0.2,0.4,0,0.5h-0.4c-1.2,0.1-1.3,0.4-1.3,2.7v7.7c0,2.2,0,2.5,1.3,2.7l0.5,0.1
			c0.1,0.1,0.1,0.5,0,0.5c-1,0-1.8-0.1-2.6-0.1c-0.9,0-1.6,0-2.6,0.1c-0.1-0.1-0.2-0.4,0-0.5l0.4-0.1c1.3-0.2,1.3-0.4,1.3-2.7v-3
			c0-0.6,0-0.7-1.1-0.7C-100.6,396.7-106.7,396.7-106.7,396.7z"/>
		<path id="path3337" class="st0" d="M-81.2,390.5c-0.1-0.3-0.5-0.4-1.1-0.4h-0.5c-0.1-0.1-0.1-0.4,0-0.5c0.8,0,1.6,0.1,2.4,0.1
			c0.9,0,1.5,0,2.2-0.1c0.2,0.1,0.1,0.4,0,0.5h-0.5c-0.5,0-0.9,0.2-1.1,0.5c-0.3,0.7-0.3,6.8-0.3,6.8c0,1.9-0.3,3.8-1.5,5.1
			c-0.9,1-2.5,1.6-4.1,1.6c-1.5,0-2.9-0.3-4-1.2s-1.7-2.5-1.7-5v-5c0-2.2,0-2.6-1.3-2.7h-0.5c-0.1-0.1-0.1-0.4,0-0.5
			c1.1,0,1.8,0.1,2.6,0.1c0.9,0,1.6,0,2.6-0.1c0.1,0.1,0.2,0.4,0,0.5h-0.5c-1.2,0.1-1.3,0.5-1.3,2.7v4.6c0,3.4,1.1,5.7,4.3,5.7
			c3.1,0,4.3-2.4,4.3-5.7C-81.2,397.5-80.8,391.1-81.2,390.5z"/>
		<path id="path3341" class="st0" d="M-71.6,395.6c0,0.6,0.1,0.6,0.7,0.6h1.5c0.9,0,1.6,0,1.8-0.1c0.2-0.1,0.4-0.2,0.5-0.7l0.2-0.9
			c0.1-0.1,0.5-0.1,0.6,0c0,0.5-0.1,1.4-0.1,2.2c0,0.8,0.1,1.6,0.1,2.1c-0.1,0.1-0.4,0.1-0.6,0l-0.2-0.8c-0.1-0.4-0.3-0.7-0.7-0.8
			c-0.3-0.1-0.8-0.1-1.6-0.1h-1.5c-0.6,0-0.7,0-0.7,0.6v3c0,2.2,0,2.6,1.3,2.7l0.7,0.1c0.1,0.1,0.1,0.5,0,0.5c-1.3,0-2-0.1-2.8-0.1
			c-0.9,0-1.7,0-2.7,0.1c-0.1-0.1-0.2-0.4,0-0.5l0.5-0.1c1.2-0.2,1.3-0.4,1.3-2.7V393c0-2.2,0-2.5-1.3-2.7h-0.3
			c-0.1-0.1-0.1-0.5,0-0.5c0.9,0,1.6,0.1,2.5,0.1h3.9c1.4,0,2.6,0,2.9-0.1c0,1,0,2,0.1,2.8c-0.1,0.1-0.4,0.2-0.5,0.1
			c-0.2-1-0.4-1.7-1.5-2c-0.5-0.1-1.2-0.1-2.1-0.1h-1.3c-0.6,0-0.6,0-0.6,0.9L-71.6,395.6L-71.6,395.6z"/>
		<path id="path3345" class="st0" d="M-58.9,395.6c0,0.6,0.1,0.6,0.7,0.6h1.5c0.9,0,1.6,0,1.8-0.1s0.4-0.2,0.5-0.7l0.2-0.9
			c0.1-0.1,0.5-0.1,0.6,0c0,0.5-0.1,1.4-0.1,2.2c0,0.8,0.1,1.6,0.1,2.1c-0.1,0.1-0.4,0.1-0.6,0l-0.2-0.8c-0.1-0.4-0.3-0.7-0.7-0.8
			c-0.3-0.1-0.8-0.1-1.6-0.1h-1.5c-0.6,0-0.7,0-0.7,0.6v3c0,2.2,0,2.6,1.3,2.7l0.7,0.1c0.1,0.1,0.1,0.5,0,0.5c-1.3,0-2-0.1-2.8-0.1
			c-0.9,0-1.7,0-2.7,0.1c-0.1-0.1-0.2-0.4,0-0.5l0.5-0.1c1.2-0.2,1.3-0.4,1.3-2.7V393c0-2.2,0-2.5-1.3-2.7h-0.3
			c-0.1-0.1-0.1-0.5,0-0.5c0.9,0,1.6,0.1,2.5,0.1h3.9c1.4,0,2.6,0,2.9-0.1c0,1,0,2,0.1,2.8c-0.1,0.1-0.4,0.2-0.5,0.1
			c-0.2-1-0.4-1.7-1.5-2c-0.5-0.1-1.2-0.1-2.1-0.1h-1.3c-0.6,0-0.6,0-0.6,0.9L-58.9,395.6L-58.9,395.6z"/>
		<path id="path3349" class="st0" d="M-47.8,392.8c0-2.3,0-2.6-1.3-2.7h-0.5c-0.1-0.1-0.1-0.5,0-0.5c1.1,0,1.8,0.1,2.7,0.1
			s1.6,0,2.6-0.1c0.1,0.1,0.2,0.4,0,0.5h-0.5c-1.3,0.1-1.3,0.5-1.3,2.7v7.6c0,2.3,0,2.6,1.3,2.7l0.5,0.1c0.1,0.1,0.1,0.5,0,0.5
			c-1.1,0-1.8-0.1-2.6-0.1c-0.9,0-1.6,0-2.7,0.1c-0.1-0.1-0.2-0.4,0-0.5l0.5-0.1c1.3-0.2,1.3-0.4,1.3-2.7V392.8z"/>
		<path id="path3353" class="st0" d="M-27.1,400c0,0.6,0,3.2,0.1,3.7c0,0.1-0.2,0.2-0.4,0.2c-0.3-0.4-0.9-1.1-2.7-3.2l-5-5.6
			c-0.6-0.7-2-2.4-2.5-2.9l0,0c-0.1,0.3-0.1,0.7-0.1,1.4v4.7c0,1,0,3.8,0.4,4.4c0.1,0.2,0.6,0.4,1.1,0.4l0.7,0.1
			c0.1,0.2,0.1,0.4,0,0.5c-1,0-1.7-0.1-2.5-0.1c-0.9,0-1.5,0-2.2,0.1c-0.1-0.1-0.2-0.4,0-0.5l0.6-0.1c0.5-0.1,0.8-0.2,0.9-0.4
			c0.3-0.8,0.3-3.4,0.3-4.4v-6.2c0-0.6,0-1-0.5-1.5c-0.3-0.3-0.8-0.4-1.3-0.5h-0.4c-0.1-0.1-0.1-0.4,0-0.5c0.9,0.1,2,0.1,2.4,0.1
			c0.3,0,0.7,0,1-0.1c0.4,1.1,2.9,3.9,3.6,4.7l2.1,2.3c1.5,1.6,2.5,2.8,3.5,3.9l0,0c0.1-0.1,0.1-0.4,0.1-0.9v-4.7c0-1,0-3.8-0.4-4.4
			c-0.1-0.2-0.5-0.3-1.3-0.4H-30c-0.1-0.1-0.1-0.5,0-0.5c1,0,1.7,0.1,2.5,0.1c0.9,0,1.5,0,2.2-0.1c0.2,0.1,0.2,0.4,0,0.5h-0.3
			c-0.7,0.1-1.1,0.3-1.2,0.4c-0.4,0.8-0.3,3.4-0.3,4.4L-27.1,400L-27.1,400z"/>
		<path id="path3357" class="st0" d="M-10.8,403.1c0,0.3-0.2,0.6-0.6,0.7c-1.1,0.2-2.7,0.4-3.6,0.4c-2.5,0-4.9-0.7-6.5-2.4
			c-1.3-1.3-2-3-2-4.8s0.6-3.6,1.9-5.1c1.4-1.5,3.5-2.5,6.8-2.5c1.2,0,2.3,0.2,2.7,0.3c0.4,0.1,1.1,0.2,1.3,0.2
			c0,0.7,0.1,1.8,0.3,3.1c-0.1,0.2-0.4,0.2-0.6,0.1c-0.6-2.3-2.2-3-4.4-3c-4.1,0-6,2.9-6,6.1c0,4.1,2.1,7.3,6.4,7.3
			c1.3,0,2.1-0.3,2.3-0.6c0.1-0.1,0.2-0.5,0.2-1.2v-0.9c0-1.8-0.1-1.9-1.4-2.1l-0.9-0.1c-0.2-0.1-0.1-0.5,0-0.5
			c0.6,0,1.8,0.1,3.1,0.1c0.8,0,1.6,0,2.3-0.1c0.2,0.1,0.2,0.4,0,0.5h-0.3c-0.9,0.1-0.9,0.7-0.9,1.8l0,1.2
			C-10.7,401.5-10.8,402.4-10.8,403.1z"/>
		<path id="path3361" class="st0" d="M1,400.4c0,2.2,0,2.6,1.3,2.7l0.7,0.1c0.1,0.1,0.1,0.5,0,0.5c-1.2,0-1.9-0.1-2.8-0.1
			s-1.6,0-3,0.1c-0.1-0.1-0.2-0.4,0-0.5l0.8-0.1c1.2-0.1,1.3-0.4,1.3-2.7v-9.5c0-0.7,0-0.7-0.6-0.7h-1.2c-0.9,0-2.1,0-2.6,0.5
			s-0.7,0.9-1,1.5c-0.2,0.1-0.5,0-0.6-0.1c0.3-1,0.7-2.3,0.8-3.2c0.1,0,0.3-0.1,0.4,0c0.1,0.7,0.8,0.7,1.8,0.7h8.6
			c1.2,0,1.3,0,1.7-0.6c0.1,0,0.3,0,0.4,0.1c-0.2,0.9-0.4,2.6-0.3,3.2c-0.1,0.2-0.4,0.2-0.6,0c-0.1-0.5-0.2-1.3-0.5-1.6
			c-0.5-0.4-1.3-0.5-2.5-0.5H1.6c-0.6,0-0.6,0-0.6,0.7V400.4L1,400.4z"/>
		<path id="path3365" class="st0" d="M7.7,396.7c0-4.3,3.2-7.5,7.6-7.5c4.9,0,7.4,3.6,7.4,7.3c0,4.3-3.3,7.4-7.4,7.4
			C10.5,404,7.7,400.6,7.7,396.7 M20.5,397.2c0-3.5-1.6-7.3-5.6-7.3c-2.2,0-5.1,1.5-5.1,6.2c0,3.2,1.5,7.3,5.7,7.3
			C18.1,403.3,20.5,401.4,20.5,397.2"/>
		<path id="path3369" class="st0" d="M37.8,400c0,0.6,0,3.2,0.1,3.7c0,0.1-0.2,0.2-0.4,0.2c-0.3-0.4-0.9-1.1-2.7-3.2l-5-5.6
			c-0.6-0.7-2-2.4-2.5-2.9l0,0c-0.1,0.3-0.1,0.7-0.1,1.4v4.7c0,1,0,3.8,0.4,4.4c0.1,0.2,0.6,0.4,1.1,0.4l0.7,0.1
			c0.1,0.2,0.1,0.4,0,0.5c-1,0-1.7-0.1-2.5-0.1c-0.9,0-1.5,0-2.2,0.1c-0.1-0.1-0.2-0.4,0-0.5l0.6-0.1c0.5-0.1,0.8-0.2,0.9-0.4
			c0.3-0.8,0.3-3.4,0.3-4.4v-6.2c0-0.6,0-1-0.5-1.5c-0.3-0.3-0.8-0.4-1.3-0.5h-0.4c-0.1-0.1-0.1-0.4,0-0.5c0.9,0.1,2,0.1,2.4,0.1
			c0.3,0,0.7,0,1-0.1c0.4,1.1,2.9,3.9,3.6,4.7l2.1,2.3c1.5,1.6,2.5,2.8,3.5,3.9l0,0c0.1-0.1,0.1-0.4,0.1-0.9v-4.7c0-1,0-3.8-0.4-4.4
			c-0.1-0.2-0.5-0.3-1.3-0.4h-0.4c-0.1-0.1-0.1-0.5,0-0.5c1,0,1.7,0.1,2.5,0.1c0.9,0,1.5,0,2.2-0.1c0.2,0.1,0.2,0.4,0,0.5h-0.3
			c-0.7,0.1-1.1,0.3-1.2,0.4c-0.4,0.8-0.3,3.4-0.3,4.4L37.8,400L37.8,400z"/>
	</g>
	<g>
		<path id="path3373" class="st0" d="M54.6,400.4c0,2.2,0,2.5,1.4,2.7l0.6,0.1c0.1,0.1,0.1,0.5,0,0.5c-1.2,0-1.9-0.1-2.8-0.1
			c-0.9,0-1.7,0-2.6,0.1c-0.1-0.1-0.2-0.4,0-0.5l0.4-0.1c1.2-0.2,1.3-0.4,1.3-2.7v-7.9c0-1.8,0-2.2-1-2.3l-0.8-0.1
			c-0.2-0.1-0.1-0.4,0-0.5c1.1-0.2,2.5-0.2,4.2-0.2c1.8,0,3.1,0.2,4.1,0.9c1,0.6,1.7,1.7,1.7,3.2c0,2-1.2,2.9-2.1,3.4
			c-0.9,0.4-2.1,0.6-2.9,0.6c-0.2-0.1-0.2-0.4,0-0.4c2.3-0.4,3.1-1.7,3.1-3.6c0-2.1-1.2-3.4-3.4-3.4c-1.1,0-1.2,0.1-1.2,0.8V400.4
			L54.6,400.4z"/>
		<path id="path3377" class="st0" d="M62.5,396.7c0-4.3,3.2-7.5,7.6-7.5c4.9,0,7.4,3.6,7.4,7.3c0,4.3-3.3,7.4-7.4,7.4
			C65.4,404,62.5,400.6,62.5,396.7 M75.4,397.2c0-3.5-1.6-7.3-5.6-7.3c-2.2,0-5.1,1.5-5.1,6.2c0,3.2,1.5,7.3,5.7,7.3
			C73,403.3,75.4,401.4,75.4,397.2"/>
		<path id="path3381" class="st0" d="M83.2,404c-1.8,0-2.9-0.6-3.3-0.8c-0.3-0.5-0.5-2-0.6-3c0.1-0.1,0.4-0.2,0.5-0.1
			c0.3,1.1,1.2,3.2,3.7,3.2c1.8,0,2.7-1.2,2.7-2.5c0-0.9-0.2-2-1.7-3l-2-1.3c-1.1-0.7-2.3-1.9-2.3-3.7c0-2,1.6-3.7,4.4-3.7
			c0.7,0,1.4,0.1,2,0.3c0.3,0.1,0.6,0.1,0.7,0.1c0.2,0.5,0.4,1.7,0.4,2.6c-0.1,0.1-0.4,0.2-0.5,0.1c-0.3-1-0.9-2.4-2.9-2.4
			c-2.1,0-2.5,1.4-2.5,2.4c0,1.2,1,2.1,1.8,2.6l1.7,1.1c1.3,0.8,2.7,2.1,2.7,4.1C87.8,402.4,86,404,83.2,404"/>
		<path id="path3385" class="st0" d="M97,400.4c0,2.2,0,2.6,1.3,2.7l0.7,0.1c0.1,0.1,0.1,0.5,0,0.5c-1.2,0-1.9-0.1-2.8-0.1
			s-1.6,0-3,0.1c-0.1-0.1-0.2-0.4,0-0.5l0.8-0.1c1.2-0.1,1.3-0.4,1.3-2.7v-9.5c0-0.7,0-0.7-0.6-0.7h-1.2c-0.9,0-2.1,0-2.6,0.5
			s-0.7,0.9-1,1.5c-0.2,0.1-0.5,0-0.6-0.1c0.3-1,0.7-2.3,0.8-3.2c0.1,0,0.3-0.1,0.4,0c0.1,0.7,0.8,0.7,1.8,0.7h8.6
			c1.2,0,1.3,0,1.7-0.6c0.1,0,0.3,0,0.4,0.1c-0.2,0.9-0.4,2.6-0.3,3.2c-0.1,0.2-0.4,0.2-0.6,0c-0.1-0.5-0.2-1.3-0.5-1.6
			c-0.5-0.4-1.3-0.5-2.5-0.5h-1.5c-0.6,0-0.6,0-0.6,0.7L97,400.4L97,400.4z"/>
	</g>
</g>
</svg>
